DataRate=1500.000000
DataType=double
version=3
OpenSimVersion=4.3-2021-08-27-4bc7ad9
endheader
time	f1_1	f1_2	f1_3	p1_1	p1_2	p1_3	m1_1	m1_2	m1_3	f2_1	f2_2	f2_3	p2_1	p2_2	p2_3	m2_1	m2_2	m2_3	f3_1	f3_2	f3_3	p3_1	p3_2	p3_3	m3_1	m3_2	m3_3
2.646666666666667	-35.50304200432141	-33.75829358436524	552.7111592903391	-259.089987039566	398.0210380554199	1.304700013250113	-48752.87664214438	-32126.22906680349	-4269.356788616627	0	0	-0	251.3170061707497	231.4150097742677	1.697000026702881	0	0	-0	0	0	-0	949.9620513916016	396.987003326416	4.582600176334381	0	0	-0
2.647333333333333	-35.366893176275	-33.41576889257058	553.0789044402778	-259.089987039566	398.0210380554199	1.304700013250113	-48897.65171288982	-32240.90213699336	-4165.446074366055	0	0	-0	251.3170061707497	231.4150097742677	1.697000026702881	0	0	-0	0	0	-0	949.9620513916016	396.987003326416	4.582600176334381	0	0	-0
2.648	-34.07092569402467	-33.95292894784753	559.3335390174627	-259.089987039566	398.0210380554199	1.304700013250113	-48775.7720033982	-32636.16468248161	-4212.078502281652	0	0	-0	251.3170061707497	231.4150097742677	1.697000026702881	0	0	-0	0	0	-0	949.9620513916016	396.987003326416	4.582600176334381	0	0	-0
2.648666666666667	-33.78208433514003	-33.20567373275986	551.4661611443192	-259.089987039566	398.0210380554199	1.304700013250113	-48890.61879329697	-32102.6833015737	-4154.23556867183	0	0	-0	251.3170061707497	231.4150097742677	1.697000026702881	0	0	-0	0	0	-0	949.9620513916016	396.987003326416	4.582600176334381	0	0	-0
2.649333333333333	-33.31066371616287	-33.30848173121811	549.7678394182389	-259.089987039566	398.0210380554199	1.304700013250113	-48455.38872061404	-32406.14755900172	-3861.09982325837	0	0	-0	251.3170061707497	231.4150097742677	1.697000026702881	0	0	-0	0	0	-0	949.9620513916016	396.987003326416	4.582600176334381	0	0	-0
2.65	-32.69906548606173	-32.5335765742425	548.2445336755339	-259.089987039566	398.0210380554199	1.304700013250113	-48212.54690296944	-32496.6197193437	-3945.989997727551	0	0	-0	251.3170061707497	231.4150097742677	1.697000026702881	0	0	-0	0	0	-0	949.9620513916016	396.987003326416	4.582600176334381	0	0	-0
2.650666666666667	-32.67802959304606	-33.21166580420435	549.2285877247048	-259.089987039566	398.0210380554199	1.304700013250113	-48549.16255480263	-32152.93534309823	-3941.422780695731	0	0	-0	251.3170061707497	231.4150097742677	1.697000026702881	0	0	-0	0	0	-0	949.9620513916016	396.987003326416	4.582600176334381	0	0	-0
2.651333333333333	-33.06962029361193	-32.98305085750846	550.4028738755641	-259.089987039566	398.0210380554199	1.304700013250113	-48787.18444242437	-32485.14084168183	-3849.714002131709	0	0	-0	251.3170061707497	231.4150097742677	1.697000026702881	0	0	-0	0	0	-0	949.9620513916016	396.987003326416	4.582600176334381	0	0	-0
2.652	-32.51177831120332	-32.85834561302914	547.8020955612296	-259.089987039566	398.0210380554199	1.304700013250113	-48897.81423614076	-33161.29898437017	-3957.075285504356	0	0	-0	251.3170061707497	231.4150097742677	1.697000026702881	0	0	-0	0	0	-0	949.9620513916016	396.987003326416	4.582600176334381	0	0	-0
2.652666666666667	-32.22523192496805	-31.90083887110814	547.4636207727867	-259.089987039566	398.0210380554199	1.304700013250113	-49026.58485286684	-32697.76107181022	-3772.906515612305	0	0	-0	251.3170061707497	231.4150097742677	1.697000026702881	0	0	-0	0	0	-0	949.9620513916016	396.987003326416	4.582600176334381	0	0	-0
2.653333333333333	-31.78836019753443	-32.4973094991924	546.617460097362	-259.089987039566	398.0210380554199	1.304700013250113	-47557.67722896103	-33045.17217097979	-4002.026863819633	0	0	-0	251.3170061707497	231.4150097742677	1.697000026702881	0	0	-0	0	0	-0	949.9620513916016	396.987003326416	4.582600176334381	0	0	-0
2.654	-31.4488267989157	-32.37624419184864	546.0197134494708	-259.089987039566	398.0210380554199	1.304700013250113	-48182.40403280105	-33025.7445854459	-3556.147305255448	0	0	-0	251.3170061707497	231.4150097742677	1.697000026702881	0	0	-0	0	0	-0	949.9620513916016	396.987003326416	4.582600176334381	0	0	-0
